<svg width="184" height="32" viewBox="0 0 184 32" fill="none" xmlns="http://www.w3.org/2000/svg">
<path d="M44.7099 8.72H48.2199L48.2049 10.025H44.7099V13.325H43.1349V10.025H39.7599L39.7749 8.705L43.1349 8.72L43.1499 5.525L44.7099 5.54V8.72Z" fill="white"/>
<path d="M8.44227 21.757H5.39727V21.532C5.39727 21.132 5.20727 20.682 4.82727 20.182L4.21227 19.357L3.55227 20.362C3.22227 20.862 3.05227 21.252 3.04227 21.532V21.757H0.447266V21.427C0.667266 21.357 0.932266 21.192 1.24227 20.932C1.55227 20.672 1.81727 20.372 2.03727 20.032L3.28227 18.097L2.15727 16.567C1.85727 16.157 1.53227 15.772 1.18227 15.412C0.832266 15.042 0.582266 14.837 0.432266 14.797V14.467H3.23727V14.677C3.23727 14.937 3.47727 15.372 3.95727 15.982L4.48227 16.687L4.99227 15.892C5.33227 15.352 5.50227 14.942 5.50227 14.662V14.452L8.08227 14.467V14.797C7.52227 14.977 6.99227 15.462 6.49227 16.252L5.41227 17.947L6.70227 19.642C7.04227 20.092 7.38227 20.487 7.72227 20.827C8.06227 21.167 8.30227 21.367 8.44227 21.427V21.757ZM16.2764 15.547L16.2614 16.852H8.55137L8.56637 15.532L16.2764 15.547ZM16.2764 17.827L16.2614 19.132H8.55137L8.56637 17.812L16.2764 17.827Z" fill="white"/>
<path d="M41.49 22.8573C41.49 21.9173 41.08 21.4473 40.26 21.4473C39.65 21.4473 38.735 21.9223 37.515 22.8723C37.025 22.3423 36.745 21.7473 36.675 21.0873C38.045 20.5773 39.26 20.3223 40.32 20.3223C41.39 20.3223 42.21 20.5423 42.78 20.9823C43.36 21.4123 43.65 22.0023 43.65 22.7523C43.65 23.8023 43.11 24.9973 42.03 26.3373C41.49 26.9973 40.995 27.5623 40.545 28.0323C40.105 28.5023 39.55 29.0673 38.88 29.7273C39.51 29.7273 39.945 29.7223 40.185 29.7123C41.985 29.6523 43.2 29.3773 43.83 28.8873L44.235 29.1723L43.53 31.0023H36.945L36.585 30.1473C37.155 29.5873 37.615 29.1273 37.965 28.7673C38.325 28.4073 38.75 27.9373 39.24 27.3573C39.74 26.7773 40.13 26.2673 40.41 25.8273C40.7 25.3773 40.95 24.8873 41.16 24.3573C41.38 23.8173 41.49 23.3173 41.49 22.8573ZM49.9177 28.0023C49.5577 27.8723 49.1577 27.8073 48.7177 27.8073C48.2877 27.8073 47.9577 27.8873 47.7277 28.0473C47.5777 28.2373 47.5027 28.4873 47.5027 28.7973C47.5027 29.5773 47.8427 29.9673 48.5227 29.9673C49.0827 29.9673 49.5477 29.7373 49.9177 29.2773V28.0023ZM47.9077 31.2723C47.2777 31.2723 46.7227 31.0823 46.2427 30.7023C45.7627 30.3223 45.5227 29.7723 45.5227 29.0523C45.5227 27.6623 46.5377 26.9673 48.5677 26.9673L49.9027 27.0273V26.1123C49.9027 25.5923 49.7727 25.1723 49.5127 24.8523C49.2527 24.5323 48.8527 24.3723 48.3127 24.3723C48.1927 24.3723 48.0377 24.4373 47.8477 24.5673C47.6577 24.6873 47.4977 24.8123 47.3677 24.9423C46.9577 25.3323 46.6277 25.6523 46.3777 25.9023C45.8777 25.3123 45.6077 24.7173 45.5677 24.1173C46.8477 23.7173 47.9277 23.5173 48.8077 23.5173C49.6877 23.5173 50.4227 23.7223 51.0127 24.1323C51.6027 24.5423 51.8977 25.1873 51.8977 26.0673V28.4223C51.8977 28.8723 51.9727 29.3023 52.1227 29.7123C52.2727 30.1223 52.4577 30.3973 52.6777 30.5373L52.7077 30.8673L50.5627 31.3173C50.4027 31.0173 50.2527 30.5973 50.1127 30.0573C49.8527 30.3373 49.6427 30.5473 49.4827 30.6873C49.3227 30.8173 49.0977 30.9473 48.8077 31.0773C48.5277 31.2073 48.2277 31.2723 47.9077 31.2723Z" fill="white"/>
<path d="M20.5836 11.0642C20.9836 11.1542 21.4186 11.1992 21.8886 11.1992L23.1186 11.1842C23.3386 11.1842 23.6786 11.1742 24.1386 11.1542C24.6086 11.1342 24.9636 11.1242 25.2036 11.1242L24.6336 12.6092H24.4236C23.7436 12.5192 22.8736 12.4742 21.8136 12.4742L19.8036 12.5642L20.3736 11.0642H20.5836ZM28.5681 14.7242C29.2781 14.9742 29.8581 15.0992 30.3081 15.0992C30.7581 15.0992 31.0481 15.0492 31.1781 14.9492C31.3281 14.7592 31.4681 14.3792 31.5981 13.8092C31.7281 13.2292 31.7931 12.6592 31.7931 12.0992C31.7931 10.4092 31.3831 9.56421 30.5631 9.56421C30.0331 9.56421 29.3681 9.79921 28.5681 10.2692V14.7242ZM28.5681 6.30921V9.23421C29.2381 8.71421 29.9281 8.45421 30.6381 8.45421C31.6681 8.45421 32.4781 8.79421 33.0681 9.47421C33.6581 10.1442 33.9531 10.9692 33.9531 11.9492C33.9531 13.1592 33.5131 14.1742 32.6331 14.9942C31.7531 15.8142 30.7081 16.2242 29.4981 16.2242C28.7181 16.2242 27.7081 15.9892 26.4681 15.5192V15.1892C26.5781 14.9092 26.6331 14.2492 26.6331 13.2092V7.38921C26.6331 6.62921 26.4081 6.03421 25.9581 5.60421V5.27421L28.5231 4.74921L28.6431 5.07921C28.5931 5.34921 28.5681 5.75921 28.5681 6.30921Z" fill="white"/>
<path d="M42.0743 14.9427C42.4743 15.0327 42.9093 15.0777 43.3793 15.0777L44.6093 15.0627C44.8293 15.0627 45.1693 15.0527 45.6293 15.0327C46.0993 15.0127 46.4543 15.0027 46.6943 15.0027L46.1243 16.4877H45.9143C45.2343 16.3977 44.3643 16.3527 43.3043 16.3527L41.2943 16.4427L41.8643 14.9427H42.0743Z" fill="white"/>
<path d="M19.7886 17.9381H72.44" stroke="white"/>
<path d="M85.15 19.0023V17.7723L88.63 8.24732H91.405L94.915 17.8173V19.0023H85.15ZM87.76 17.0973H92.29L90.685 12.0573C90.635 11.8873 90.565 11.6723 90.475 11.4123C90.395 11.1523 90.31 10.8873 90.22 10.6173C90.14 10.3473 90.075 10.1123 90.025 9.91232C89.975 10.1123 89.905 10.3623 89.815 10.6623C89.725 10.9523 89.64 11.2323 89.56 11.5023C89.48 11.7623 89.42 11.9473 89.38 12.0573L87.76 17.0973ZM106.308 12.7923L106.293 14.0973H98.5826L98.5976 12.7773L106.308 12.7923ZM106.308 15.0723L106.293 16.3773H98.5826L98.5976 15.0573L106.308 15.0723ZM113.174 17.7873C113.884 18.0373 114.464 18.1623 114.914 18.1623C115.364 18.1623 115.654 18.1123 115.784 18.0123C115.934 17.8223 116.074 17.4423 116.204 16.8723C116.334 16.2923 116.399 15.7223 116.399 15.1623C116.399 13.4723 115.989 12.6273 115.169 12.6273C114.639 12.6273 113.974 12.8623 113.174 13.3323V17.7873ZM113.174 9.37232V12.2973C113.844 11.7773 114.534 11.5173 115.244 11.5173C116.274 11.5173 117.084 11.8573 117.674 12.5373C118.264 13.2073 118.559 14.0323 118.559 15.0123C118.559 16.2223 118.119 17.2373 117.239 18.0573C116.359 18.8773 115.314 19.2873 114.104 19.2873C113.324 19.2873 112.314 19.0523 111.074 18.5823V18.2523C111.184 17.9723 111.239 17.3123 111.239 16.2723V10.4523C111.239 9.69232 111.014 9.09732 110.564 8.66732V8.33732L113.129 7.81232L113.249 8.14232C113.199 8.41232 113.174 8.82232 113.174 9.37232ZM122.789 9.91232C122.789 9.45232 122.624 9.22232 122.294 9.22232C121.904 9.22232 121.294 9.58232 120.464 10.3023C120.044 9.89232 119.824 9.47732 119.804 9.05732C120.704 8.63732 121.519 8.42732 122.249 8.42732C122.979 8.42732 123.519 8.56232 123.869 8.83232C124.219 9.09232 124.394 9.45232 124.394 9.91232C124.394 10.8723 123.454 12.2173 121.574 13.9473H122.219C123.319 13.8873 124.059 13.7173 124.439 13.4373L124.679 13.6473L124.274 14.9223H119.939L119.714 14.1873C120.194 13.7373 120.564 13.3873 120.824 13.1373C121.084 12.8773 121.394 12.5423 121.754 12.1323C122.444 11.3323 122.789 10.5923 122.789 9.91232ZM129.359 14.1273C129.759 14.2173 130.194 14.2623 130.664 14.2623L131.894 14.2473C132.114 14.2473 132.454 14.2373 132.914 14.2173C133.384 14.1973 133.739 14.1873 133.979 14.1873L133.409 15.6723H133.199C132.519 15.5823 131.649 15.5373 130.589 15.5373L128.579 15.6273L129.149 14.1273H129.359ZM144.373 16.1973C144.373 17.0973 144.433 17.9223 144.553 18.6723V19.0023H142.258V18.6723C142.378 17.9323 142.438 17.1573 142.438 16.3473V16.1973C140.248 16.1973 138.778 16.2023 138.028 16.2123L137.608 15.3873C138.758 13.4473 140.253 11.1573 142.093 8.51732L144.418 8.29232C144.368 9.36232 144.343 11.5623 144.343 14.8923L146.053 14.8023L145.738 16.1973H144.373ZM142.468 14.9223C142.478 13.7523 142.483 12.7923 142.483 12.0423C142.483 11.2823 142.483 10.6723 142.483 10.2123C141.063 12.2523 140.023 13.8373 139.363 14.9673C140.453 14.9673 141.488 14.9523 142.468 14.9223ZM150.626 16.9773C150.726 17.0773 150.796 17.2773 150.836 17.5773C150.876 17.8773 150.896 18.1123 150.896 18.2823C150.896 18.4423 150.886 18.5823 150.866 18.7023L150.716 18.8373C150.266 18.9673 149.596 19.0723 148.706 19.1523L148.526 19.0623C148.436 18.9123 148.361 18.6623 148.301 18.3123C148.251 17.9623 148.226 17.7223 148.226 17.5923C148.226 17.4523 148.226 17.3623 148.226 17.3223L148.376 17.1873C149.016 16.9773 149.651 16.8723 150.281 16.8723C150.341 16.8723 150.396 16.8723 150.446 16.8723L150.626 16.9773ZM157.028 16.0023C156.668 15.8723 156.268 15.8073 155.828 15.8073C155.398 15.8073 155.068 15.8873 154.838 16.0473C154.688 16.2373 154.613 16.4873 154.613 16.7973C154.613 17.5773 154.953 17.9673 155.633 17.9673C156.193 17.9673 156.658 17.7373 157.028 17.2773V16.0023ZM155.018 19.2723C154.388 19.2723 153.833 19.0823 153.353 18.7023C152.873 18.3223 152.633 17.7723 152.633 17.0523C152.633 15.6623 153.648 14.9673 155.678 14.9673L157.013 15.0273V14.1123C157.013 13.5923 156.883 13.1723 156.623 12.8523C156.363 12.5323 155.963 12.3723 155.423 12.3723C155.303 12.3723 155.148 12.4373 154.958 12.5673C154.768 12.6873 154.608 12.8123 154.478 12.9423C154.068 13.3323 153.738 13.6523 153.488 13.9023C152.988 13.3123 152.718 12.7173 152.678 12.1173C153.958 11.7173 155.038 11.5173 155.918 11.5173C156.798 11.5173 157.533 11.7223 158.123 12.1323C158.713 12.5423 159.008 13.1873 159.008 14.0673V16.4223C159.008 16.8723 159.083 17.3023 159.233 17.7123C159.383 18.1223 159.568 18.3973 159.788 18.5373L159.818 18.8673L157.673 19.3173C157.513 19.0173 157.363 18.5973 157.223 18.0573C156.963 18.3373 156.753 18.5473 156.593 18.6873C156.433 18.8173 156.208 18.9473 155.918 19.0773C155.638 19.2073 155.338 19.2723 155.018 19.2723ZM164.014 16.9773C164.114 17.0773 164.184 17.2773 164.224 17.5773C164.264 17.8773 164.284 18.1123 164.284 18.2823C164.284 18.4423 164.274 18.5823 164.254 18.7023L164.104 18.8373C163.654 18.9673 162.984 19.0723 162.094 19.1523L161.914 19.0623C161.824 18.9123 161.749 18.6623 161.689 18.3123C161.639 17.9623 161.614 17.7223 161.614 17.5923C161.614 17.4523 161.614 17.3623 161.614 17.3223L161.764 17.1873C162.404 16.9773 163.039 16.8723 163.669 16.8723C163.729 16.8723 163.784 16.8723 163.834 16.8723L164.014 16.9773ZM168.167 15.3123C168.167 17.0623 168.677 17.9373 169.697 17.9373C170.417 17.9373 171.362 17.6323 172.532 17.0223L172.922 17.6373C172.522 18.0073 171.992 18.3723 171.332 18.7323C170.682 19.0923 170.127 19.2723 169.667 19.2723C168.537 19.2723 167.642 18.9273 166.982 18.2373C166.332 17.5373 166.007 16.6223 166.007 15.4923C166.007 14.3523 166.422 13.4073 167.252 12.6573C168.082 11.8973 169.032 11.5173 170.102 11.5173C171.172 11.5173 172.092 11.7723 172.862 12.2823C172.522 12.8523 172.202 13.2973 171.902 13.6173C171.092 12.9973 170.317 12.6873 169.577 12.6873C169.387 12.6873 169.217 12.7023 169.067 12.7323C168.807 12.9723 168.592 13.3223 168.422 13.7823C168.252 14.2423 168.167 14.7523 168.167 15.3123Z" fill="white"/>
<path d="M55.86 17.3423C55.37 17.3423 55.07 17.1923 54.96 16.8923L52.86 11.1473C52.63 11.2273 52.46 11.2873 52.35 11.3273C52.24 11.3673 52.165 11.3923 52.125 11.4023C52.085 11.4123 52.05 11.4173 52.02 11.4173C51.82 11.4173 51.68 11.2973 51.6 11.0573C51.5 10.7773 51.435 10.6023 51.405 10.5323C51.385 10.4623 51.375 10.3923 51.375 10.3223C51.375 10.1223 51.495 9.97732 51.735 9.88732C52.225 9.69732 52.61 9.54732 52.89 9.43732C53.17 9.32732 53.375 9.24732 53.505 9.19732C53.645 9.14732 53.735 9.11732 53.775 9.10732C53.825 9.09732 53.865 9.09232 53.895 9.09232C54.105 9.09232 54.25 9.20732 54.33 9.43732L55.5 12.7223C55.59 12.9723 55.665 13.2273 55.725 13.4873C55.795 13.7473 55.845 13.9723 55.875 14.1623C55.915 14.3423 55.935 14.4323 55.935 14.4323H56.01C56.01 14.4323 56.015 14.3673 56.025 14.2373C56.035 14.1073 56.05 13.9473 56.07 13.7573C56.1 13.5573 56.125 13.3623 56.145 13.1723C56.175 12.9823 56.205 12.8273 56.235 12.7073L58.515 3.25732C58.585 2.94732 58.87 2.79232 59.37 2.79232H59.805C60.245 2.79232 60.465 2.89232 60.465 3.09232C60.465 3.11232 60.465 3.13732 60.465 3.16732C60.465 3.19732 60.46 3.22732 60.45 3.25732L57.165 16.8773C57.125 17.0373 57.035 17.1523 56.895 17.2223C56.755 17.3023 56.56 17.3423 56.31 17.3423H55.86ZM61.2325 15.0023C60.8825 15.0023 60.7075 14.8273 60.7075 14.4773V13.7123C60.7075 13.4623 60.7525 13.2423 60.8425 13.0523L64.4875 4.75732C64.5975 4.48732 64.8025 4.35232 65.1025 4.35232H66.0175C66.3175 4.35232 66.5225 4.48732 66.6325 4.75732L70.2775 13.0523C70.3275 13.1623 70.3625 13.2673 70.3825 13.3673C70.4025 13.4673 70.4125 13.5823 70.4125 13.7123V14.4773C70.4125 14.8273 70.2375 15.0023 69.8875 15.0023H61.2325ZM62.9875 13.0523H68.1175L65.6275 7.30732H65.4775L62.9875 13.0523Z" fill="white"/>
</svg>
