<svg width="440" height="57" viewBox="0 0 440 57" fill="#4B8BF4" xmlns="http://www.w3.org/2000/svg">
<g filter="url(#filter0_d_159_28)">
<path d="M34.7188 23.3438H16.3438V15.2188H34.7188V23.3438ZM34.7188 8.6875H16.4062C15.3021 8.6875 14.4688 8.96875 13.9062 9.53125C13.3438 10.0729 13.0625 10.875 13.0625 11.9375V49H4.9375V11.9375C4.9375 10.5417 5.11458 9.29167 5.46875 8.1875C5.82292 7.08333 6.29167 6.11458 6.875 5.28125C7.47917 4.42708 8.16667 3.70833 8.9375 3.125C9.70833 2.52083 10.5104 2.03125 11.3438 1.65625C12.1979 1.28125 13.0521 1.01042 13.9062 0.84375C14.7604 0.65625 15.5729 0.5625 16.3438 0.5625H34.7188V8.6875ZM77 44.9062C77 45.4896 76.8958 46.0312 76.6875 46.5312C76.4792 47.0312 76.1875 47.4688 75.8125 47.8438C75.4583 48.1979 75.0312 48.4792 74.5312 48.6875C74.0521 48.8958 73.5312 49 72.9688 49H54.5938C53.5938 49 52.5208 48.8854 51.375 48.6562C50.25 48.4271 49.1354 48.0625 48.0312 47.5625C46.9271 47.0417 45.8542 46.3958 44.8125 45.625C43.7917 44.8333 42.8958 43.8854 42.125 42.7812C41.3542 41.6562 40.7292 40.3646 40.25 38.9062C39.7917 37.4479 39.5625 35.8021 39.5625 33.9688V15.2188H47.6875V33.9688C47.6875 35.0312 47.8646 35.9896 48.2188 36.8438C48.5938 37.6771 49.0938 38.3958 49.7188 39C50.3438 39.6042 51.0729 40.0729 51.9062 40.4062C52.7604 40.7188 53.6771 40.875 54.6562 40.875H68.875V15.2188H77V44.9062ZM122.062 49H113.938V30.25C113.938 29.1875 113.75 28.2396 113.375 27.4062C113.021 26.5521 112.531 25.8229 111.906 25.2188C111.281 24.6146 110.542 24.1562 109.688 23.8438C108.854 23.5104 107.948 23.3438 106.969 23.3438H92.75V49H84.625V19.25C84.625 18.6875 84.7292 18.1667 84.9375 17.6875C85.1458 17.1875 85.4375 16.7604 85.8125 16.4062C86.1875 16.0312 86.625 15.7396 87.125 15.5312C87.625 15.3229 88.1562 15.2188 88.7188 15.2188H107.031C108.052 15.2188 109.125 15.3333 110.25 15.5625C111.396 15.7917 112.521 16.1667 113.625 16.6875C114.75 17.1875 115.812 17.8333 116.812 18.625C117.833 19.3958 118.729 20.3438 119.5 21.4688C120.292 22.5729 120.917 23.8542 121.375 25.3125C121.833 26.7708 122.062 28.4167 122.062 30.25V49ZM161.906 49H139.875C138.75 49 137.521 48.8021 136.188 48.4062C134.854 48.0104 133.615 47.3646 132.469 46.4688C131.344 45.5521 130.396 44.375 129.625 42.9375C128.875 41.4792 128.5 39.6979 128.5 37.5938V26.5938C128.5 25.8229 128.583 25.0104 128.75 24.1562C128.938 23.3021 129.219 22.4583 129.594 21.625C129.969 20.7708 130.448 19.9583 131.031 19.1875C131.635 18.4167 132.354 17.7396 133.188 17.1562C134.042 16.5729 135.021 16.1042 136.125 15.75C137.229 15.3958 138.479 15.2188 139.875 15.2188H161.906V23.3438H139.875C138.812 23.3438 138 23.6146 137.438 24.1562C136.896 24.6979 136.625 25.5312 136.625 26.6562V37.5938C136.625 38.6562 136.906 39.4688 137.469 40.0312C138.031 40.5938 138.854 40.875 139.938 40.875H161.906V49ZM199.344 23.3438H185.156V49H176.938V23.3438H166.375V15.2188H176.938V4.1875H185.156V15.2188H199.344V23.3438ZM212.938 8.28125H204.812V0.9375H212.938V8.28125ZM212.938 49H204.812V15.2188H212.938V49ZM257.5 37.5938C257.5 38.9896 257.323 40.25 256.969 41.375C256.615 42.4792 256.146 43.4583 255.562 44.3125C254.979 45.1458 254.302 45.8646 253.531 46.4688C252.76 47.0521 251.948 47.5312 251.094 47.9062C250.26 48.2812 249.406 48.5625 248.531 48.75C247.677 48.9167 246.865 49 246.094 49H231.438C230.312 49 229.083 48.8021 227.75 48.4062C226.417 48.0104 225.177 47.3646 224.031 46.4688C222.906 45.5521 221.958 44.375 221.188 42.9375C220.438 41.4792 220.062 39.6979 220.062 37.5938V26.5938C220.062 24.5104 220.438 22.75 221.188 21.3125C221.958 19.8542 222.906 18.6771 224.031 17.7812C225.177 16.8646 226.417 16.2083 227.75 15.8125C229.083 15.4167 230.312 15.2188 231.438 15.2188H246.094C248.177 15.2188 249.948 15.5938 251.406 16.3438C252.865 17.0938 254.042 18.0417 254.938 19.1875C255.833 20.3125 256.479 21.5417 256.875 22.875C257.292 24.2083 257.5 25.4479 257.5 26.5938V37.5938ZM249.375 26.6562C249.375 25.5312 249.094 24.6979 248.531 24.1562C247.969 23.6146 247.156 23.3438 246.094 23.3438H231.5C230.417 23.3438 229.594 23.625 229.031 24.1875C228.469 24.7292 228.188 25.5312 228.188 26.5938V37.5938C228.188 38.6562 228.469 39.4688 229.031 40.0312C229.594 40.5938 230.417 40.875 231.5 40.875H246.094C247.198 40.875 248.021 40.5938 248.562 40.0312C249.104 39.4688 249.375 38.6562 249.375 37.5938V26.6562ZM301.875 49H293.75V30.25C293.75 29.1875 293.562 28.2396 293.188 27.4062C292.833 26.5521 292.344 25.8229 291.719 25.2188C291.094 24.6146 290.354 24.1562 289.5 23.8438C288.667 23.5104 287.76 23.3438 286.781 23.3438H272.562V49H264.438V19.25C264.438 18.6875 264.542 18.1667 264.75 17.6875C264.958 17.1875 265.25 16.7604 265.625 16.4062C266 16.0312 266.438 15.7396 266.938 15.5312C267.438 15.3229 267.969 15.2188 268.531 15.2188H286.844C287.865 15.2188 288.938 15.3333 290.062 15.5625C291.208 15.7917 292.333 16.1667 293.438 16.6875C294.562 17.1875 295.625 17.8333 296.625 18.625C297.646 19.3958 298.542 20.3438 299.312 21.4688C300.104 22.5729 300.729 23.8542 301.188 25.3125C301.646 26.7708 301.875 28.4167 301.875 30.25V49ZM338.719 23.3438H324.531V49H316.312V23.3438H305.75V15.2188H316.312V4.1875H324.531V15.2188H338.719V23.3438ZM373.438 23.3438H355.156C354.052 23.3438 353.219 23.625 352.656 24.1875C352.094 24.7292 351.812 25.5312 351.812 26.5938V49H343.688V26.5938C343.688 25.1979 343.865 23.9479 344.219 22.8438C344.573 21.7396 345.042 20.7708 345.625 19.9375C346.229 19.0833 346.917 18.3646 347.688 17.7812C348.458 17.1771 349.26 16.6875 350.094 16.3125C350.948 15.9375 351.802 15.6667 352.656 15.5C353.531 15.3125 354.344 15.2188 355.094 15.2188H373.438V23.3438ZM387.062 8.28125H378.938V0.9375H387.062V8.28125ZM387.062 49H378.938V15.2188H387.062V49ZM433.469 15.2188L418.875 31.1562L435.312 49H424.125L413.312 37.2188L402.5 49H391.281L407.688 31.0938L393.156 15.2188H404.281L413.25 25L422.281 15.2188H433.469Z" fill="#E2E2EB"/>
</g>
<defs>
<filter id="filter0_d_159_28" x="0.9375" y="0.5625" width="438.375" height="56.4375" filterUnits="userSpaceOnUse" color-interpolation-filters="sRGB">
<feFlood flood-opacity="0" result="BackgroundImageFix"/>
<feColorMatrix in="SourceAlpha" type="matrix" values="0 0 0 0 0 0 0 0 0 0 0 0 0 0 0 0 0 0 127 0" result="hardAlpha"/>
<feOffset dy="4"/>
<feGaussianBlur stdDeviation="2"/>
<feComposite in2="hardAlpha" operator="out"/>
<feColorMatrix type="matrix" values="0 0 0 0 0 0 0 0 0 0 0 0 0 0 0 0 0 0 0.25 0"/>
<feBlend mode="normal" in2="BackgroundImageFix" result="effect1_dropShadow_159_28"/>
<feBlend mode="normal" in="SourceGraphic" in2="effect1_dropShadow_159_28" result="shape"/>
</filter>
</defs>
</svg>
