<svg width="270" height="31" viewBox="0 0 270 31" fill="none" xmlns="http://www.w3.org/2000/svg">
<path d="M19.0742 14.9648H7.58984V9.88672H19.0742V14.9648ZM19.0742 5.80469H7.62891C6.9388 5.80469 6.41797 5.98047 6.06641 6.33203C5.71484 6.67057 5.53906 7.17188 5.53906 7.83594V31H0.460938V7.83594C0.460938 6.96354 0.571615 6.18229 0.792969 5.49219C1.01432 4.80208 1.30729 4.19661 1.67188 3.67578C2.04948 3.14193 2.47917 2.69271 2.96094 2.32812C3.44271 1.95052 3.94401 1.64453 4.46484 1.41016C4.9987 1.17578 5.53255 1.00651 6.06641 0.902344C6.60026 0.785156 7.10807 0.726562 7.58984 0.726562H19.0742V5.80469ZM45.5 28.4414C45.5 28.806 45.4349 29.1445 45.3047 29.457C45.1745 29.7695 44.9922 30.043 44.7578 30.2773C44.5365 30.4987 44.2695 30.6745 43.957 30.8047C43.6576 30.9349 43.332 31 42.9805 31H31.4961C30.8711 31 30.2005 30.9284 29.4844 30.7852C28.7812 30.6419 28.0846 30.4141 27.3945 30.1016C26.7044 29.776 26.0339 29.3724 25.3828 28.8906C24.7448 28.3958 24.1849 27.8034 23.7031 27.1133C23.2214 26.4102 22.8307 25.6029 22.5312 24.6914C22.2448 23.7799 22.1016 22.7513 22.1016 21.6055V9.88672H27.1797V21.6055C27.1797 22.2695 27.2904 22.8685 27.5117 23.4023C27.7461 23.9232 28.0586 24.3724 28.4492 24.75C28.8398 25.1276 29.2956 25.4206 29.8164 25.6289C30.3503 25.8242 30.9232 25.9219 31.5352 25.9219H40.4219V9.88672H45.5V28.4414ZM73.6641 31H68.5859V19.2812C68.5859 18.6172 68.4688 18.0247 68.2344 17.5039C68.013 16.9701 67.707 16.5143 67.3164 16.1367C66.9258 15.7591 66.4635 15.4727 65.9297 15.2773C65.4089 15.069 64.8424 14.9648 64.2305 14.9648H55.3438V31H50.2656V12.4062C50.2656 12.0547 50.3307 11.7292 50.4609 11.4297C50.5911 11.1172 50.7734 10.8503 51.0078 10.6289C51.2422 10.3945 51.5156 10.2122 51.8281 10.082C52.1406 9.95182 52.4727 9.88672 52.8242 9.88672H64.2695C64.9076 9.88672 65.5781 9.95833 66.2812 10.1016C66.9974 10.2448 67.7005 10.4792 68.3906 10.8047C69.0938 11.1172 69.7578 11.5208 70.3828 12.0156C71.0208 12.4974 71.5807 13.0898 72.0625 13.793C72.5573 14.4831 72.9479 15.2839 73.2344 16.1953C73.5208 17.1068 73.6641 18.1354 73.6641 19.2812V31ZM98.5664 31H84.7969C84.0938 31 83.3255 30.8763 82.4922 30.6289C81.6589 30.3815 80.8841 29.9779 80.168 29.418C79.4648 28.8451 78.8724 28.1094 78.3906 27.2109C77.9219 26.2995 77.6875 25.1862 77.6875 23.8711V16.9961C77.6875 16.5143 77.7396 16.0065 77.8438 15.4727C77.9609 14.9388 78.1367 14.4115 78.3711 13.8906C78.6055 13.3568 78.9049 12.849 79.2695 12.3672C79.6471 11.8854 80.0964 11.4622 80.6172 11.0977C81.151 10.7331 81.763 10.4401 82.4531 10.2188C83.1432 9.9974 83.9245 9.88672 84.7969 9.88672H98.5664V14.9648H84.7969C84.1328 14.9648 83.625 15.1341 83.2734 15.4727C82.9349 15.8112 82.7656 16.332 82.7656 17.0352V23.8711C82.7656 24.5352 82.9414 25.043 83.293 25.3945C83.6445 25.7461 84.1589 25.9219 84.8359 25.9219H98.5664V31ZM121.965 14.9648H113.098V31H107.961V14.9648H101.359V9.88672H107.961V2.99219H113.098V9.88672H121.965V14.9648ZM130.461 5.55078H125.383V0.960938H130.461V5.55078ZM130.461 31H125.383V9.88672H130.461V31ZM158.312 23.8711C158.312 24.7435 158.202 25.5312 157.98 26.2344C157.759 26.9245 157.466 27.5365 157.102 28.0703C156.737 28.5911 156.314 29.0404 155.832 29.418C155.35 29.7826 154.842 30.082 154.309 30.3164C153.788 30.5508 153.254 30.7266 152.707 30.8438C152.173 30.9479 151.665 31 151.184 31H142.023C141.32 31 140.552 30.8763 139.719 30.6289C138.885 30.3815 138.111 29.9779 137.395 29.418C136.691 28.8451 136.099 28.1094 135.617 27.2109C135.148 26.2995 134.914 25.1862 134.914 23.8711V16.9961C134.914 15.694 135.148 14.5938 135.617 13.6953C136.099 12.7839 136.691 12.0482 137.395 11.4883C138.111 10.9154 138.885 10.5052 139.719 10.2578C140.552 10.0104 141.32 9.88672 142.023 9.88672H151.184C152.486 9.88672 153.592 10.1211 154.504 10.5898C155.415 11.0586 156.151 11.651 156.711 12.3672C157.271 13.0703 157.674 13.8385 157.922 14.6719C158.182 15.5052 158.312 16.2799 158.312 16.9961V23.8711ZM153.234 17.0352C153.234 16.332 153.059 15.8112 152.707 15.4727C152.355 15.1341 151.848 14.9648 151.184 14.9648H142.062C141.385 14.9648 140.871 15.1406 140.52 15.4922C140.168 15.8307 139.992 16.332 139.992 16.9961V23.8711C139.992 24.5352 140.168 25.043 140.52 25.3945C140.871 25.7461 141.385 25.9219 142.062 25.9219H151.184C151.874 25.9219 152.388 25.7461 152.727 25.3945C153.065 25.043 153.234 24.5352 153.234 23.8711V17.0352ZM186.047 31H180.969V19.2812C180.969 18.6172 180.852 18.0247 180.617 17.5039C180.396 16.9701 180.09 16.5143 179.699 16.1367C179.309 15.7591 178.846 15.4727 178.312 15.2773C177.792 15.069 177.225 14.9648 176.613 14.9648H167.727V31H162.648V12.4062C162.648 12.0547 162.714 11.7292 162.844 11.4297C162.974 11.1172 163.156 10.8503 163.391 10.6289C163.625 10.3945 163.898 10.2122 164.211 10.082C164.523 9.95182 164.855 9.88672 165.207 9.88672H176.652C177.29 9.88672 177.961 9.95833 178.664 10.1016C179.38 10.2448 180.083 10.4792 180.773 10.8047C181.477 11.1172 182.141 11.5208 182.766 12.0156C183.404 12.4974 183.964 13.0898 184.445 13.793C184.94 14.4831 185.331 15.2839 185.617 16.1953C185.904 17.1068 186.047 18.1354 186.047 19.2812V31ZM209.074 14.9648H200.207V31H195.07V14.9648H188.469V9.88672H195.07V2.99219H200.207V9.88672H209.074V14.9648ZM230.773 14.9648H219.348C218.658 14.9648 218.137 15.1406 217.785 15.4922C217.434 15.8307 217.258 16.332 217.258 16.9961V31H212.18V16.9961C212.18 16.1237 212.29 15.3424 212.512 14.6523C212.733 13.9622 213.026 13.3568 213.391 12.8359C213.768 12.3021 214.198 11.8529 214.68 11.4883C215.161 11.1107 215.663 10.8047 216.184 10.5703C216.717 10.3359 217.251 10.1667 217.785 10.0625C218.332 9.94531 218.84 9.88672 219.309 9.88672H230.773V14.9648ZM239.289 5.55078H234.211V0.960938H239.289V5.55078ZM239.289 31H234.211V9.88672H239.289V31ZM268.293 9.88672L259.172 19.8477L269.445 31H262.453L255.695 23.6367L248.938 31H241.926L252.18 19.8086L243.098 9.88672H250.051L255.656 16L261.301 9.88672H268.293Z" fill="#4B8BF4"/>
</svg>
